<svg xmlns="http://www.w3.org/2000/svg" viewBox="0 0 400 94.39"><defs><style>.a{fill:#3e5fa8;}.b{fill:#3f60a8;fill-opacity:0.4;}.c{fill:#fff;}</style></defs><path class="a" d="M176.55,279.64v-30h-4.94v17a11.79,11.79,0,0,1-.58,3.78,8.2,8.2,0,0,1-1.63,3,7.33,7.33,0,0,1-2.79,2,9.73,9.73,0,0,1-3.89.7,6,6,0,0,1-4.48-1.63,6,6,0,0,1-1.63-4.42V249.59h-4.94v19.76a20.13,20.13,0,0,0,.47,4.48,8.78,8.78,0,0,0,1.74,3.43,8.16,8.16,0,0,0,3.2,2.27,14,14,0,0,0,4.94.75,12.23,12.23,0,0,0,5.75-1.28,10.18,10.18,0,0,0,4-4.13h.12v4.77ZM187,270.17h-4.94a11,11,0,0,0,1.17,4.76,8.89,8.89,0,0,0,2.79,3.14,12,12,0,0,0,4,1.69,21,21,0,0,0,4.76.52,22.49,22.49,0,0,0,4.54-.46,11.66,11.66,0,0,0,4.13-1.52,8.48,8.48,0,0,0,3-2.9,8.25,8.25,0,0,0,1.16-4.54,6.91,6.91,0,0,0-.87-3.6,6.81,6.81,0,0,0-2.21-2.38,10.62,10.62,0,0,0-3.14-1.57,34,34,0,0,0-3.6-1c-1.16-.27-2.33-.52-3.49-.76a25.15,25.15,0,0,1-3.14-.93,8.26,8.26,0,0,1-2.32-1.39,2.93,2.93,0,0,1-.88-2.15,2.78,2.78,0,0,1,.59-1.86,3.67,3.67,0,0,1,1.51-1.17,7.09,7.09,0,0,1,2-.64,16.2,16.2,0,0,1,2.27-.17,9.94,9.94,0,0,1,2.38.29,7.1,7.1,0,0,1,2.21.81,4.89,4.89,0,0,1,1.63,1.57,4.73,4.73,0,0,1,.75,2.39h5a10.88,10.88,0,0,0-1.17-4.54,7.42,7.42,0,0,0-2.67-2.9,9.92,9.92,0,0,0-3.78-1.51,21.6,21.6,0,0,0-4.71-.47,16.47,16.47,0,0,0-4,.52,11.33,11.33,0,0,0-3.6,1.52,8.47,8.47,0,0,0-2.62,2.61,7.36,7.36,0,0,0-1,3.9,6.56,6.56,0,0,0,1.46,4.53,10.26,10.26,0,0,0,3.6,2.56,28.61,28.61,0,0,0,4.77,1.39,44.22,44.22,0,0,1,4.71,1.11,11.67,11.67,0,0,1,3.66,1.57,3.27,3.27,0,0,1,1.45,2.9,3.75,3.75,0,0,1-.7,2.33,4.54,4.54,0,0,1-1.8,1.34,8.33,8.33,0,0,1-2.32.63,17.68,17.68,0,0,1-2.45.18,15.39,15.39,0,0,1-3-.29,9.3,9.3,0,0,1-2.56-.93,5.94,5.94,0,0,1-1.8-1.8A5.84,5.84,0,0,1,187,270.17Zm32.91-20.58v-9H215v9h-5.12V254H215v19.12a11.45,11.45,0,0,0,.4,3.37,4.17,4.17,0,0,0,1.22,2,5.29,5.29,0,0,0,2.21,1,21.15,21.15,0,0,0,3.32.23h3.77v-4.36h-2.26q-1.17,0-1.92-.06a2.58,2.58,0,0,1-1.11-.4A1.65,1.65,0,0,1,220,274a6.54,6.54,0,0,1-.11-1.39V254h6v-4.36Zm15.08,15a15.36,15.36,0,0,1,.69-4.82,10.9,10.9,0,0,1,2-3.6,8.55,8.55,0,0,1,3-2.21,9.07,9.07,0,0,1,3.67-.76,8.61,8.61,0,0,1,3.6.76,8.41,8.41,0,0,1,3,2.21,10,10,0,0,1,2,3.6,14.22,14.22,0,0,1,.75,4.82,14.82,14.82,0,0,1-.75,4.89,10.15,10.15,0,0,1-2,3.54,8.74,8.74,0,0,1-3,2.15,8.61,8.61,0,0,1-3.6.76,9.07,9.07,0,0,1-3.67-.76,8.9,8.9,0,0,1-3-2.15,11.11,11.11,0,0,1-2-3.54A16,16,0,0,1,235,264.64Zm-5.23,0a19.8,19.8,0,0,0,.93,6.17,14.37,14.37,0,0,0,2.79,5,13.36,13.36,0,0,0,4.59,3.32,16,16,0,0,0,6.28,1.16,15.7,15.7,0,0,0,6.27-1.16,13.3,13.3,0,0,0,4.6-3.32,14.37,14.37,0,0,0,2.79-5,20.9,20.9,0,0,0,0-12.33,13.73,13.73,0,0,0-2.79-5,13,13,0,0,0-4.6-3.37,15,15,0,0,0-6.27-1.22,15.3,15.3,0,0,0-6.28,1.22,13.1,13.1,0,0,0-4.59,3.37,13.73,13.73,0,0,0-2.79,5A19.78,19.78,0,0,0,229.75,264.64Zm35-15v30h4.94V260.92a7.39,7.39,0,0,1,.41-2.15,9.11,9.11,0,0,1,1.39-2.55,8.9,8.9,0,0,1,2.5-2.1,7.58,7.58,0,0,1,3.72-.87,6.14,6.14,0,0,1,2.74.52,4,4,0,0,1,1.74,1.4,5,5,0,0,1,.87,2.09,11.29,11.29,0,0,1,.29,2.68v19.7h4.94V260.92a7.54,7.54,0,0,1,2.1-5.58,7.78,7.78,0,0,1,5.75-2.09,6.86,6.86,0,0,1,2.91.52,4.3,4.3,0,0,1,1.8,1.46,5,5,0,0,1,.87,2.09,13.59,13.59,0,0,1,.23,2.62v19.7h4.95v-22a9.37,9.37,0,0,0-.76-4,6.46,6.46,0,0,0-2-2.73,7.94,7.94,0,0,0-3.14-1.52,14.94,14.94,0,0,0-4.07-.52,11.44,11.44,0,0,0-5.47,1.34,10.6,10.6,0,0,0-3.95,3.78,6.55,6.55,0,0,0-3.2-4,11.71,11.71,0,0,0-14.76,4h-.12v-4.42Zm54.79-5.41v-6H314.6v6Zm-4.94,5.41v30h4.94v-30Zm10.15,26.27v3.78H350.1v-4.36H330.92L349.29,253v-3.37H325.92V254h17ZM376,261.74H358.73a10,10,0,0,1,.76-3.26,8.6,8.6,0,0,1,1.74-2.73,7.62,7.62,0,0,1,2.62-1.8,8.35,8.35,0,0,1,3.48-.7,7.85,7.85,0,0,1,3.37.7,7.58,7.58,0,0,1,2.68,1.8,7.77,7.77,0,0,1,1.8,2.67A9.41,9.41,0,0,1,376,261.74Zm4.77,8.37h-4.88a7,7,0,0,1-2.68,4.42,8.45,8.45,0,0,1-5.11,1.45,10.25,10.25,0,0,1-4.24-.81,8.48,8.48,0,0,1-3-2.16,8.74,8.74,0,0,1-1.69-3.13,12.45,12.45,0,0,1-.46-3.78h22.5a23.28,23.28,0,0,0-.53-5.76,15.73,15.73,0,0,0-2.21-5.58,12.47,12.47,0,0,0-4.24-4.18,12,12,0,0,0-6.63-1.69,13.92,13.92,0,0,0-5.69,1.16,13.71,13.71,0,0,0-4.48,3.26,15.26,15.26,0,0,0-2.91,4.94,18.26,18.26,0,0,0-1,6.28,25,25,0,0,0,1,6.33,14.14,14.14,0,0,0,2.73,5,12.33,12.33,0,0,0,4.42,3.26,15.7,15.7,0,0,0,6.27,1.16,13.63,13.63,0,0,0,8.49-2.56A12,12,0,0,0,380.76,270.11Z" transform="translate(-50.34 -202.62)"/><path class="a" d="M387.39,273.19v6.45h6.45v-6.45Z" transform="translate(-50.34 -202.62)"/><path class="a" d="M406.11,241h6.62v6.28h-6.62Zm0,11.45h6.62v30.06h-6.62Z" transform="translate(-50.34 -202.62)"/><path class="a" d="M435.17,283.36a16.85,16.85,0,0,1-6.45-1.16,13.62,13.62,0,0,1-7.73-8.31,19.75,19.75,0,0,1-1-6.4,19.49,19.49,0,0,1,1-6.33,14.42,14.42,0,0,1,3-5,13.78,13.78,0,0,1,4.77-3.26,16.3,16.3,0,0,1,6.45-1.22,15.87,15.87,0,0,1,6.39,1.22,13.07,13.07,0,0,1,4.77,3.26,13.44,13.44,0,0,1,3,5,18.72,18.72,0,0,1,1,6.33,19,19,0,0,1-1,6.4,13.52,13.52,0,0,1-3,5,13.69,13.69,0,0,1-4.77,3.31A16.4,16.4,0,0,1,435.17,283.36Zm0-5.23a7.64,7.64,0,0,0,3.84-.93,8.11,8.11,0,0,0,2.67-2.44,10.19,10.19,0,0,0,1.51-3.37,14.73,14.73,0,0,0,.53-3.9,14.38,14.38,0,0,0-.53-3.83,9.55,9.55,0,0,0-1.51-3.38,8.22,8.22,0,0,0-2.67-2.44,8.39,8.39,0,0,0-7.68,0,8.22,8.22,0,0,0-2.67,2.44,10.41,10.41,0,0,0-1.57,3.38,16.11,16.11,0,0,0-.46,3.83,16.51,16.51,0,0,0,.46,3.9,11.19,11.19,0,0,0,1.57,3.37,8.11,8.11,0,0,0,2.67,2.44A7.64,7.64,0,0,0,435.17,278.13Z" transform="translate(-50.34 -202.62)"/><path class="b" d="M115.68,202.62H55.57a5.23,5.23,0,0,0-5.23,5.23v69.5a5.23,5.23,0,0,0,5.23,5.23h60.11a5.23,5.23,0,0,0,5.23-5.23v-69.5A5.23,5.23,0,0,0,115.68,202.62Z" transform="translate(-50.34 -202.62)"/><path class="b" d="M124.4,211.34H64.29a5.23,5.23,0,0,0-5.23,5.23v69.49a5.24,5.24,0,0,0,5.23,5.24H124.4a5.24,5.24,0,0,0,5.23-5.24V216.57A5.23,5.23,0,0,0,124.4,211.34Z" transform="translate(-50.34 -202.62)"/><path class="a" d="M72.67,220.06H130a5.23,5.23,0,0,1,5.23,5.23v66.48A5.22,5.22,0,0,1,130,297H72.67a5.22,5.22,0,0,1-5.23-5.23V225.29A5.23,5.23,0,0,1,72.67,220.06Z" transform="translate(-50.34 -202.62)"/><path class="c" d="M85.87,236.68v41.51h5.52V263.66l6.92-6.46,15,21h7l-18.19-24.77,17.49-16.74h-7.15l-21,20.7v-20.7Z" transform="translate(-50.34 -202.62)"/></svg>